HIERARCHY
ROOT Hips
{
  OFFSET 15.689 40.8509 -6.66476
  CHANNELS 6 Xposition Yposition Zposition Zrotation Xrotation Yrotation
  JOINT LeftHip
  {
    OFFSET 3.43 0 0
    CHANNELS 6 Xposition Yposition Zposition Zrotation Xrotation Yrotation
    JOINT LeftKnee
    {
      OFFSET 0 -18.47 0
      CHANNELS 6 Xposition Yposition Zposition Zrotation Xrotation Yrotation
      JOINT LeftAnkle
      {
        OFFSET 0 -17.95 0
        CHANNELS 6 Xposition Yposition Zposition Zrotation Xrotation Yrotation
        End Site
        {
          OFFSET 0 -3.12 0
        }
      }
    }
  }
  JOINT RightHip
  {
    OFFSET -3.43 0 0
    CHANNELS 6 Xposition Yposition Zposition Zrotation Xrotation Yrotation
    JOINT RightKnee
    {
      OFFSET 0 -18.47 0
      CHANNELS 6 Xposition Yposition Zposition Zrotation Xrotation Yrotation
      JOINT RightAnkle
      {
        OFFSET 0 -17.95 0
        CHANNELS 6 Xposition Yposition Zposition Zrotation Xrotation Yrotation
        End Site
        {
          OFFSET 0 -3.12 0
        }
      }
    }
  }
  JOINT Chest
  {
    OFFSET 0 4.57 0
    CHANNELS 6 Xposition Yposition Zposition Zrotation Xrotation Yrotation
    JOINT CS_BVH
    {
      OFFSET 0 6.57 0
      CHANNELS 6 Xposition Yposition Zposition Zrotation Xrotation Yrotation
      JOINT LeftCollar
      {
        OFFSET 1.06 4.19 1.76
        CHANNELS 6 Xposition Yposition Zposition Zrotation Xrotation Yrotation
        JOINT LeftShoulder
        {
          OFFSET 5.81 0 0
          CHANNELS 6 Xposition Yposition Zposition Zrotation Xrotation Yrotation
          JOINT LeftElbow
          {
            OFFSET 0 -12.08 0
            CHANNELS 6 Xposition Yposition Zposition Zrotation Xrotation Yrotation
            JOINT LeftWrist
            {
              OFFSET 0 -9.82 0
              CHANNELS 6 Xposition Yposition Zposition Zrotation Xrotation Yrotation
              End Site
              {
                OFFSET 0 -7.37 0
              }
            }
          }
        }
      }
      JOINT RightCollar
      {
        OFFSET -1.06 4.19 1.76
        CHANNELS 6 Xposition Yposition Zposition Zrotation Xrotation Yrotation
        JOINT RightShoulder
        {
          OFFSET -6.06 0 0
          CHANNELS 6 Xposition Yposition Zposition Zrotation Xrotation Yrotation
          JOINT RightElbow
          {
            OFFSET 0 -11.08 0
            CHANNELS 6 Xposition Yposition Zposition Zrotation Xrotation Yrotation
            JOINT RightWrist
            {
              OFFSET 0 -9.82 0
              CHANNELS 6 Xposition Yposition Zposition Zrotation Xrotation Yrotation
              End Site
              {
                OFFSET 0 -7.14001 0
              }
            }
          }
        }
      }
      JOINT Neck
      {
        OFFSET 0 4.05 0
        CHANNELS 6 Xposition Yposition Zposition Zrotation Xrotation Yrotation
        JOINT Head
        {
          OFFSET 0 5.19 0
          CHANNELS 6 Xposition Yposition Zposition Zrotation Xrotation Yrotation
          End Site
          {
            OFFSET 0 4.14001 0
          }
        }
      }
    }
  }
}
MOTION
Frames:	7
Frame Time:	0.0333333
-26.7439 23.1757 -6.40377 -26.1417 -46.9628 -22.5873 3.43 9.12756e-010 -1.60032e-011 20.7878 -35.8922 1.20323 1.57372e-008 -18.47 1.10541e-007 -52.7335 73.8172 50.8062 1.5558e-008 -17.95 3.38894e-008 5.45793 -6.57975 -0.343232 -3.43 -9.12749e-010 1.60023e-011 -102.845 -71.1423 -76.1903 4.27853e-008 -18.47 -1.42709e-007 162.062 30.5975 -123.851 -2.59563e-008 -17.95 2.98131e-008 -1.01658 -2.02689 -0.038379 -1.05168e-009 4.57 4.29798e-011 -1.1738 20.1409 -0.989991 -1.67976e-009 6.57 2.67812e-010 4.22512 40.1314 -3.36696 1.06 4.19 1.76 21.7493 52.4813 -26.0799 5.81 -5.77685e-010 -2.42139e-010 26.8083 -75.0619 -23.7164 -4.70036e-009 -12.08 6.73172e-010 14.67 -42.4839 28.7523 -1.10605e-009 -9.82 -1.29618e-009 4.07738 11.0453 -0.124693 -1.06 4.19 1.76 3.22008 54.2688 8.16575 -6.06 -5.89036e-008 -4.70616e-010 -124.647 -59.6149 -25.8096 -7.10448e-009 -11.08 -5.62306e-011 -10.1633 -46.7385 3.265 -1.10928e-009 -9.82 1.29577e-009 7.7415 -2.51007 -0.516228 4.66962e-010 4.05 1.19922e-010 1.07129 35.2478 -2.55491 3.38399e-009 5.19 -2.27068e-010 -8.69105 -5.87584 -5.47842 
-26.762 23.1686 -6.39056 -26.5798 -46.8416 -22.9479 3.43 9.12756e-010 -1.60032e-011 20.5543 -36.0462 0.405053 1.57372e-008 -18.47 1.10541e-007 -52.2147 74.1535 49.2222 1.5558e-008 -17.95 3.38894e-008 4.64057 -6.26298 -0.294061 -3.43 -9.12749e-010 1.60023e-011 -102.868 -70.9241 -76.0624 4.27853e-008 -18.47 -1.42709e-007 161.966 30.5197 -122.926 -2.59563e-008 -17.95 2.98131e-008 -0.502441 -1.52637 -0.10594 -1.05168e-009 4.57 4.29798e-011 -1.12169 20.1632 -1.02961 -1.67976e-009 6.57 2.67812e-010 4.23675 40.2122 -3.41528 1.06 4.19 1.76 21.8085 52.702 -25.4456 5.81 -5.77685e-010 -2.42139e-010 26.2719 -75.8875 -24.2119 -4.70036e-009 -12.08 6.73172e-010 14.491 -42.0516 28.4281 -1.10605e-009 -9.82 -1.29618e-009 3.86394 11.0533 -0.156671 -1.06 4.19 1.76 3.39067 54.4808 7.56724 -6.06 -5.89036e-008 -4.70616e-010 -126.718 -60.0192 -26.4204 -7.10448e-009 -11.08 -5.62306e-011 -10.2438 -46.9473 3.30662 -1.10928e-009 -9.82 1.29577e-009 7.7076 -2.84634 -0.486514 4.66962e-010 4.05 1.19922e-010 1.13686 35.0141 -2.6779 3.38399e-009 5.19 -2.27068e-010 -8.60285 -5.79105 -5.21199 
-26.7635 23.1779 -6.38682 -26.6571 -46.837 -23.1524 3.43 9.12756e-010 -1.60032e-011 19.8068 -36.0138 -0.441819 1.57372e-008 -18.47 1.10541e-007 -51.2238 74.3617 48.0325 1.5558e-008 -17.95 3.38894e-008 4.87866 -5.95031 -0.287005 -3.43 -9.12749e-010 1.60023e-011 -103.353 -70.8486 -76.7234 4.27853e-008 -18.47 -1.42709e-007 161.924 30.6765 -122.865 -2.59563e-008 -17.95 2.98131e-008 0.895644 -0.0672235 -0.321519 -1.05168e-009 4.57 4.29798e-011 -1.15038 20.1524 -0.950908 -1.67976e-009 6.57 2.67812e-010 4.00882 40.1976 -3.16609 1.06 4.19 1.76 23.5942 52.2687 -26.9235 5.81 -5.77685e-010 -2.42139e-010 24.6079 -76.4824 -24.4 -4.70036e-009 -12.08 6.73172e-010 14.4091 -40.5571 28.1688 -1.10605e-009 -9.82 -1.29618e-009 1.91236 11.4283 -0.485071 -1.06 4.19 1.76 3.24054 54.4855 7.76965 -6.06 -5.89036e-008 -4.70616e-010 -126.738 -60.0601 -26.3896 -7.10448e-009 -11.08 -5.62306e-011 -10.4688 -47.4611 3.2341 -1.10928e-009 -9.82 1.29577e-009 8.28678 -0.748423 -0.708316 4.66962e-010 4.05 1.19922e-010 1.71501 35.1875 -3.75963 3.38399e-009 5.19 -2.27068e-010 -9.51081 -6.32962 -4.73035 
-26.7719 23.1833 -6.36949 -26.516 -46.8877 -23.1441 3.43 9.12756e-010 -1.60032e-011 19.4603 -35.9916 -0.76345 1.57372e-008 -18.47 1.10541e-007 -50.7634 74.3614 47.446 1.5558e-008 -17.95 3.38894e-008 4.21693 -6.01644 -0.260361 -3.43 -9.12749e-010 1.60023e-011 -102.833 -70.7521 -75.5979 4.27853e-008 -18.47 -1.42709e-007 161.835 30.3122 -121.874 -2.59563e-008 -17.95 2.98131e-008 0.138584 -0.93884 -0.18847 -1.05168e-009 4.57 4.29798e-011 -1.26674 20.1535 -0.897304 -1.67976e-009 6.57 2.67812e-010 3.81745 40.2159 -3.02188 1.06 4.19 1.76 23.2563 52.3533 -26.8586 5.81 -5.77685e-010 -2.42139e-010 26.1001 -76.3347 -22.9298 -4.70036e-009 -12.08 6.73172e-010 14.6959 -40.6623 27.8041 -1.10605e-009 -9.82 -1.29618e-009 1.54156 11.2201 -0.520606 -1.06 4.19 1.76 2.91612 54.5389 7.56445 -6.06 -5.89036e-008 -4.70616e-010 -127.733 -60.4614 -27.0469 -7.10448e-009 -11.08 -5.62306e-011 -10.5501 -47.4262 3.07235 -1.10928e-009 -9.82 1.29577e-009 9.40655 1.40023 -1.00947 4.66962e-010 4.05 1.19922e-010 1.89715 35.2673 -4.37931 3.38399e-009 5.19 -2.27068e-010 -9.8798 -6.41022 -4.6429 
-26.7727 23.1958 -6.36968 -26.4964 -46.9405 -23.1775 3.43 9.12756e-010 -1.60032e-011 19.0638 -35.94 -1.12693 1.57372e-008 -18.47 1.10541e-007 -49.8646 74.4192 46.753 1.5558e-008 -17.95 3.38894e-008 3.59071 -5.98912 -0.229501 -3.43 -9.12749e-010 1.60023e-011 -102.795 -70.6971 -75.4968 4.27853e-008 -18.47 -1.42709e-007 161.823 30.3214 -121.786 -2.59563e-008 -17.95 2.98131e-008 0.193976 -0.884361 -0.18386 -1.05168e-009 4.57 4.29798e-011 -1.30213 20.1715 -0.921584 -1.67976e-009 6.57 2.67812e-010 3.78177 40.2535 -3.06824 1.06 4.19 1.76 21.9094 52.6992 -26.0082 5.81 -5.77685e-010 -2.42139e-010 29.2548 -75.8212 -20.8163 -4.70036e-009 -12.08 6.73172e-010 14.9058 -41.4972 27.5483 -1.10605e-009 -9.82 -1.29618e-009 2.43381 10.8514 -0.355354 -1.06 4.19 1.76 1.44203 54.556 8.36814 -6.06 -5.89036e-008 -4.70616e-010 -128.058 -60.9487 -27.5684 -7.10448e-009 -11.08 -5.62306e-011 -10.1406 -47.4177 4.93854 -1.10928e-009 -9.82 1.29577e-009 7.4418 -2.97462 -0.45548 4.66962e-010 4.05 1.19922e-010 1.66433 35.3242 -4.35642 3.38399e-009 5.19 -2.27068e-010 -9.39949 -6.3947 -5.00438 
-26.7738 23.1981 -6.37392 -26.5411 -46.9712 -23.1815 3.43 9.12756e-010 -1.60032e-011 18.7653 -35.9168 -1.51595 1.57372e-008 -18.47 1.10541e-007 -49.186 74.5195 46.0661 1.5558e-008 -17.95 3.38894e-008 3.11357 -5.51314 -0.180896 -3.43 -9.12749e-010 1.60023e-011 -102.729 -70.6501 -75.2707 4.27853e-008 -18.47 -1.42709e-007 161.776 30.2871 -121.477 -2.59563e-008 -17.95 2.98131e-008 0.253416 -0.852867 -0.192771 -1.05168e-009 4.57 4.29798e-011 -1.31402 20.1192 -1.01985 -1.67976e-009 6.57 2.67812e-010 3.79933 40.1527 -3.26861 1.06 4.19 1.76 19.5735 53.0336 -24.8366 5.81 -5.77685e-010 -2.42139e-010 32.6349 -75.3253 -18.3458 -4.70036e-009 -12.08 6.73172e-010 14.621 -41.3497 27.4267 -1.10605e-009 -9.82 -1.29618e-009 1.34207 11.0691 -0.539161 -1.06 4.19 1.76 -1.34401 54.3161 10.4187 -6.06 -5.89036e-008 -4.70616e-010 -127.337 -61.6503 -27.6302 -7.10448e-009 -11.08 -5.62306e-011 -9.75504 -47.3478 6.12255 -1.10928e-009 -9.82 1.29577e-009 8.44982 -1.73261 -0.631965 4.66962e-010 4.05 1.19922e-010 1.06887 35.8786 -3.60625 3.38399e-009 5.19 -2.27068e-010 -7.88934 -7.46071 -5.87757 
-26.7744 23.2063 -6.41987 -26.5151 -47.0227 -23.0678 3.43 9.12756e-010 -1.60032e-011 18.2412 -35.7808 -1.62699 1.57372e-008 -18.47 1.10541e-007 -45.705 74.3213 43.6491 1.5558e-008 -17.95 3.38894e-008 3.34984 -4.58728 -0.13294 -3.43 -9.12749e-010 1.60023e-011 -102.412 -70.4606 -74.77 4.27853e-008 -18.47 -1.42709e-007 161.691 30.2753 -120.993 -2.59563e-008 -17.95 2.98131e-008 0.285127 -0.851181 -0.199906 -1.05168e-009 4.57 4.29798e-011 -1.3927 20.1073 -1.00621 -1.67976e-009 6.57 2.67812e-010 3.79652 40.139 -3.22443 1.06 4.19 1.76 18.0191 53.3327 -23.8831 5.81 -5.77685e-010 -2.42139e-010 34.129 -74.9948 -17.4969 -4.70036e-009 -12.08 6.73172e-010 14.7736 -41.6647 26.9439 -1.10605e-009 -9.82 -1.29618e-009 1.48814 11.8024 -0.577367 -1.06 4.19 1.76 -2.54933 54.2045 11.558 -6.06 -5.89036e-008 -4.70616e-010 -126.343 -61.7835 -26.6348 -7.10448e-009 -11.08 -5.62306e-011 -9.54576 -47.6763 9.23476 -1.10928e-009 -9.82 1.29577e-009 8.1733 -2.09278 -0.581204 4.66962e-010 4.05 1.19922e-010 0.931252 36.1169 -3.29353 3.38399e-009 5.19 -2.27068e-010 -6.9809 -7.80957 -6.52453 
